<?xml version="1.0" encoding="UTF-8"?>
<svg version="1.1" xmlns="http://www.w3.org/2000/svg" width="32" height="32">
<path d="M0 0 C1.671875 1.66015625 1.671875 1.66015625 2.109375 4.59765625 C1.671875 7.66015625 1.671875 7.66015625 0.171875 9.59765625 C-1.68486148 11.71543664 -1.68486148 11.71543664 -1.265625 15.22265625 C-1.328125 18.66015625 -1.328125 18.66015625 -3.140625 20.53515625 C-7.85045081 22.95735238 -12.13568311 23.16939749 -17.328125 22.66015625 C-20.390625 21.41015625 -20.390625 21.41015625 -22.328125 19.66015625 C-22.328125 18.34015625 -22.328125 17.02015625 -22.328125 15.66015625 C-23.4625 15.51578125 -24.596875 15.37140625 -25.765625 15.22265625 C-29.328125 14.66015625 -29.328125 14.66015625 -30.328125 13.66015625 C-30.24324512 9.24640253 -29.83308785 7.21561539 -26.828125 3.91015625 C-19.83974759 -1.10756497 -7.87118057 -4.52989083 0 0 Z " fill="#B4B4B3" transform="translate(30.328125,5.33984375)"/>
<path d="M0 0 C1.671875 1.66015625 1.671875 1.66015625 2.109375 4.59765625 C1.671875 7.66015625 1.671875 7.66015625 0.171875 9.59765625 C-1.68486148 11.71543664 -1.68486148 11.71543664 -1.265625 15.22265625 C-1.328125 18.66015625 -1.328125 18.66015625 -3.140625 20.53515625 C-6.43884897 22.23138572 -9.10271959 22.81677172 -12.765625 22.84765625 C-13.52746094 22.86183594 -14.28929687 22.87601563 -15.07421875 22.890625 C-17.56159815 22.63628291 -19.17620606 21.90032821 -21.328125 20.66015625 C-18.26279336 19.12749043 -15.06058228 19.55739154 -11.703125 19.59765625 C-10.64351562 19.60442383 -10.64351562 19.60442383 -9.5625 19.61132812 C-7.81767225 19.6231175 -6.072888 19.64105301 -4.328125 19.66015625 C-4.328125 19.00015625 -4.328125 18.34015625 -4.328125 17.66015625 C-8.288125 17.66015625 -12.248125 17.66015625 -16.328125 17.66015625 C-16.328125 17.33015625 -16.328125 17.00015625 -16.328125 16.66015625 C-12.368125 16.66015625 -8.408125 16.66015625 -4.328125 16.66015625 C-4.988125 15.34015625 -5.648125 14.02015625 -6.328125 12.66015625 C-12.268125 13.15515625 -12.268125 13.15515625 -18.328125 13.66015625 C-18.99479167 10.32682292 -19.66145833 6.99348958 -20.328125 3.66015625 C-19.668125 3.99015625 -19.008125 4.32015625 -18.328125 4.66015625 C-18.06 5.48515625 -17.791875 6.31015625 -17.515625 7.16015625 C-17.12375 7.98515625 -16.731875 8.81015625 -16.328125 9.66015625 C-13.78037194 10.55401789 -13.78037194 10.55401789 -11.328125 10.66015625 C-11.328125 7.36015625 -11.328125 4.06015625 -11.328125 0.66015625 C-13.184375 1.18609375 -13.184375 1.18609375 -15.078125 1.72265625 C-18.231417 2.61608898 -20.19586664 2.66896919 -23.328125 1.66015625 C-16.40508643 -1.27689042 -6.93709278 -3.99232018 0 0 Z " fill="#7E7E7D" transform="translate(30.328125,5.33984375)"/>
<path d="M0 0 C1 2 1 2 0.0625 5.125 C-0.288125 6.07375 -0.63875 7.0225 -1 8 C0.32 8 1.64 8 3 8 C3.12375 7.236875 3.2475 6.47375 3.375 5.6875 C4 3 4 3 6 0 C6.66 0.33 7.32 0.66 8 1 C7.01 2.98 6.02 4.96 5 7 C5.99 7.66 6.98 8.32 8 9 C8.4375 12.4375 8.4375 12.4375 8 16 C5.38690252 18.70320429 2.65529156 19.86891798 -1.12109375 20.16796875 C-1.88550781 20.17441406 -2.64992188 20.18085938 -3.4375 20.1875 C-4.19933594 20.20167969 -4.96117187 20.21585938 -5.74609375 20.23046875 C-8.23347315 19.97612666 -9.84808106 19.24017196 -12 18 C-8.93466836 16.46733418 -5.73245728 16.89723529 -2.375 16.9375 C-1.31539062 16.94426758 -1.31539062 16.94426758 -0.234375 16.95117188 C1.51045275 16.96296125 3.255237 16.98089676 5 17 C5 16.34 5 15.68 5 15 C1.04 15 -2.92 15 -7 15 C-7 14.67 -7 14.34 -7 14 C-3.04 14 0.92 14 5 14 C4.34 12.68 3.68 11.36 3 10 C-2.94 10.495 -2.94 10.495 -9 11 C-9.66666667 7.66666667 -10.33333333 4.33333333 -11 1 C-10.34 1.33 -9.68 1.66 -9 2 C-8.5978125 3.2375 -8.5978125 3.2375 -8.1875 4.5 C-7.5996875 5.7375 -7.5996875 5.7375 -7 7 C-4.45224694 7.89386164 -4.45224694 7.89386164 -2 8 C-1.855625 6.865625 -1.71125 5.73125 -1.5625 4.5625 C-1 1 -1 1 0 0 Z " fill="#8A8A89" transform="translate(21,8)"/>
<path d="M0 0 C0 3.3 0 6.6 0 10 C-1.65 10 -3.3 10 -5 10 C-6.8125 7.5 -6.8125 7.5 -8 5 C-7.67 6.98 -7.34 8.96 -7 11 C-9.64 10.67 -12.28 10.34 -15 10 C-15.75 8.25 -15.75 8.25 -16 6 C-11.9694962 0.51851484 -6.4684717 -0.30802246 0 0 Z " fill="#E7E7E5" transform="translate(19,6)"/>
<path d="M0 0 C1.32 0.33 2.64 0.66 4 1 C4.25 4.3125 4.25 4.3125 4 8 C1.38690252 10.70320429 -1.34470844 11.86891798 -5.12109375 12.16796875 C-5.88550781 12.17441406 -6.64992188 12.18085938 -7.4375 12.1875 C-8.19933594 12.20167969 -8.96117187 12.21585938 -9.74609375 12.23046875 C-12.23347315 11.97612666 -13.84808106 11.24017196 -16 10 C-12.93466836 8.46733418 -9.73245728 8.89723529 -6.375 8.9375 C-5.31539062 8.94426758 -5.31539062 8.94426758 -4.234375 8.95117188 C-2.48954725 8.96296125 -0.744763 8.98089676 1 9 C1 8.34 1 7.68 1 7 C-2.96 7 -6.92 7 -11 7 C-11 6.67 -11 6.34 -11 6 C-7.04 6 -3.08 6 1 6 C0.67 4.02 0.34 2.04 0 0 Z " fill="#4F4F4E" transform="translate(25,16)"/>
<path d="M0 0 C0 1.32 0 2.64 0 4 C-7.92 4.495 -7.92 4.495 -16 5 C-16 4.01 -16 3.02 -16 2 C-3.59493671 -1.79746835 -3.59493671 -1.79746835 0 0 Z " fill="#E5E5E3" transform="translate(26,18)"/>
<path d="M0 0 C3 2 3 2 3.6875 5.125 C3.790625 6.07375 3.89375 7.0225 4 8 C1.36 7.67 -1.28 7.34 -4 7 C-4.33 5.68 -4.66 4.36 -5 3 C-3.35 2.01 -1.7 1.02 0 0 Z " fill="#EEEEEC" transform="translate(8,9)"/>
<path d="M0 0 C1.07765625 0.00902344 2.1553125 0.01804687 3.265625 0.02734375 C4.08546875 0.03894531 4.9053125 0.05054687 5.75 0.0625 C5.75 0.7225 5.75 1.3825 5.75 2.0625 C2.86584117 3.50457941 0.33278472 3.15644887 -2.875 3.125 C-4.06351563 3.11597656 -5.25203125 3.10695313 -6.4765625 3.09765625 C-7.39179688 3.08605469 -8.30703125 3.07445312 -9.25 3.0625 C-9.58 2.4025 -9.91 1.7425 -10.25 1.0625 C-6.78777385 -0.00473961 -3.60960734 -0.03923486 0 0 Z " fill="#D5D5D3" transform="translate(20.25,22.9375)"/>
<path d="M0 0 C0.66 0.33 1.32 0.66 2 1 C1.484375 1.391875 0.96875 1.78375 0.4375 2.1875 C-0.036875 2.785625 -0.51125 3.38375 -1 4 C-0.76956136 6.65466049 -0.76956136 6.65466049 0 9 C-0.66 9 -1.32 9 -2 9 C-2.33 9.66 -2.66 10.32 -3 11 C-0.69 11.33 1.62 11.66 4 12 C4 13.65 4 15.3 4 17 C3.67 15.68 3.34 14.36 3 13 C1.865625 12.855625 0.73125 12.71125 -0.4375 12.5625 C-4 12 -4 12 -5 11 C-4.77265843 6.98363218 -4.57290919 4.67707449 -1.9375 1.5625 C-0.9784375 0.7890625 -0.9784375 0.7890625 0 0 Z " fill="#414140" transform="translate(5,8)"/>
<path d="M0 0 C1.32 0.33 2.64 0.66 4 1 C3.34 3.64 2.68 6.28 2 9 C0.68 9 -0.64 9 -2 9 C-1.34 6.03 -0.68 3.06 0 0 Z " fill="#E7E7E5" transform="translate(22,7)"/>
</svg>
