<?xml version="1.0" encoding="UTF-8"?>
<svg version="1.1" xmlns="http://www.w3.org/2000/svg" viewBox="0 0 512 512">
<path d="M0 0 C9.89786864 2.44311028 19.51133978 2.56850559 29.65991211 2.54052734 C31.93935985 2.53522462 34.21860557 2.54046723 36.49804688 2.546875 C44.96844785 2.55054566 53.33541111 2.22835027 61.78686523 1.64599609 C68.67394607 1.21414358 75.5711877 1.18655154 82.46972656 1.16992188 C84.90463778 1.16016271 87.33872037 1.12895836 89.7734375 1.09765625 C109.41056902 0.96528501 128.54295124 4.19693179 143.59375 17.84765625 C144.356875 18.69328125 145.12 19.53890625 145.90625 20.41015625 C146.834375 21.33828125 147.7625 22.26640625 148.71875 23.22265625 C164.40041952 41.86236679 166.50532676 67.592779 164.72021484 90.83203125 C161.09180047 122.75616589 140.62411719 153.66745083 115.90625 173.41015625 C106.16949762 180.99144436 95.92696716 186.8864554 84.90625 192.41015625 C85.38835937 192.91804687 85.87046875 193.4259375 86.3671875 193.94921875 C92.84148218 201.00487866 94.21901982 205.98436599 94.125 215.515625 C93.90625 218.41015625 93.90625 218.41015625 92.65625 222.16015625 C91.8245807 225.76405657 91.95835736 226.00993907 93.671875 229.0078125 C96.07829656 233.55755075 97.53295332 238.15023698 98.90625 243.09765625 C99.16043701 244.00612305 99.41462402 244.91458984 99.67651367 245.85058594 C103.5864909 260.2056998 106.25645699 274.44916012 106.73046875 289.33203125 C106.55633672 292.28212358 106.55633672 292.28212358 107.90625 293.41015625 C107.90625 300.25337801 106.48992535 304.10308512 102.02734375 309.29296875 C98.33333453 312.98017501 94.37633627 315.73158315 89.90625 318.41015625 C89.34244629 318.75014648 88.77864258 319.09013672 88.19775391 319.44042969 C33.89031108 351.61726432 -44.45530303 359.93177287 -106.09375 349.41015625 C-107.08890625 349.24386719 -108.0840625 349.07757813 -109.109375 348.90625 C-128.73965395 345.50870172 -147.55360651 339.76208216 -165.59375 331.28515625 C-166.43574951 330.88981689 -167.27774902 330.49447754 -168.14526367 330.0871582 C-180.31528294 324.12199271 -190.34720538 315.65440969 -195.2578125 302.71875 C-197.21348822 294.97829517 -196.39842546 287.02403007 -195.59375 279.16015625 C-194.32243793 266.65268896 -194.22237781 254.46556913 -198.09375 242.41015625 C-198.43317393 241.07836036 -198.76749783 239.74523992 -199.09375 238.41015625 C-200.20621094 238.384375 -201.31867188 238.35859375 -202.46484375 238.33203125 C-298.14267082 235.3609154 -298.14267082 235.3609154 -317.96875 214.66015625 C-325.72964916 204.86270908 -326.17323247 194.45167252 -325.09375 182.41015625 C-320.47139286 143.10735162 -300.04992949 103.24416096 -269.09375 78.41015625 C-263.57678295 74.19652639 -257.85080678 70.28592316 -252.09375 66.41015625 C-251.29195313 65.8692334 -250.49015625 65.32831055 -249.6640625 64.77099609 C-238.127206 57.03047507 -226.37242897 49.90775576 -214.09375 43.41015625 C-213.15329834 42.90307129 -213.15329834 42.90307129 -212.19384766 42.38574219 C-203.44029074 37.68324455 -194.38949849 33.72653017 -185.21875 29.91015625 C-184.21142822 29.48355713 -183.20410645 29.05695801 -182.16625977 28.61743164 C-162.05394777 20.41394824 -140.86769895 15.11154399 -119.78027344 10.09985352 C-116.09303297 9.22248563 -112.40970422 8.32994737 -108.7265625 7.43554688 C-72.09652893 -1.3900191 -37.24846887 -9.41109204 0 0 Z M103.90625 293.41015625 C104.90625 297.41015625 104.90625 297.41015625 104.90625 297.41015625 Z " fill="#040404" transform="translate(336.09375,82.58984375)"/>
<path d="M0 0 C6.38463674 1.45377377 12.65733657 1.82141992 19.17529297 1.83227539 C19.94831757 1.83632889 20.72134216 1.84038239 21.51779175 1.84455872 C24.02606376 1.85399184 26.5341931 1.85395251 29.04248047 1.85180664 C30.33653809 1.85289429 30.33653809 1.85289429 31.65673828 1.85400391 C43.1202334 1.85294522 54.48585438 1.5308746 65.91748047 0.66430664 C117.68076636 -3.25250497 117.68076636 -3.25250497 138.67138672 12.76586914 C148.54485286 21.95437401 153.37035142 33.95043961 156.91748047 46.66430664 C157.10439453 47.3251123 157.29130859 47.98591797 157.48388672 48.66674805 C161.6252979 64.88850773 160.17261127 83.85892086 154.91748047 99.66430664 C154.70317383 100.33461914 154.48886719 101.00493164 154.26806641 101.69555664 C147.97536709 121.0407982 136.82310344 136.90062345 122.91748047 151.66430664 C122.34126953 152.3049707 121.76505859 152.94563477 121.17138672 153.60571289 C114.29703178 160.93937885 106.1060821 166.89213614 97.91748047 172.66430664 C97.28438965 173.1198291 96.65129883 173.57535156 95.99902344 174.04467773 C92.14610991 176.72764026 88.5998446 178.76756947 83.91748047 179.66430664 C79.288964 178.37134063 75.94499146 176.37602877 71.91210938 173.76342773 C67.8255881 171.51158945 63.32888135 170.14604028 58.91748047 168.66430664 C71.86904263 128.52336875 71.86904263 128.52336875 79.91748047 111.66430664 C80.39797852 110.65255371 80.87847656 109.64080078 81.37353516 108.59838867 C89.66500039 91.27930007 98.87640381 74.83242772 109.41357422 58.78930664 C109.80124969 58.19875488 110.18892517 57.60820312 110.58834839 56.99975586 C112.51249163 54.07286477 114.44561159 51.15256064 116.39501953 48.24243164 C117.44834473 46.65688477 117.44834473 46.65688477 118.52294922 45.03930664 C119.15354248 44.09829102 119.78413574 43.15727539 120.43383789 42.18774414 C121.75947174 39.93305409 122.47563839 38.21867105 122.91748047 35.66430664 C103.21492125 50.36304129 89.25570649 71.07255854 77.91748047 92.66430664 C77.57330078 93.31850586 77.22912109 93.97270508 76.87451172 94.64672852 C65.06272312 117.47832754 58.80545626 142.24251977 55.91748047 167.66430664 C54.76119141 167.47094727 53.60490234 167.27758789 52.41357422 167.07836914 C31.91629182 163.81867655 10.94604559 162.22641812 -9.81542969 162.64990234 C-11.57078703 162.68474865 -13.32688191 162.67947882 -15.08251953 162.66430664 C-16.08251953 161.66430664 -16.08251953 161.66430664 -16.16772461 159.66845703 C-15.37968545 127.79241936 -9.22690633 100.00180284 2.37231445 70.54125977 C2.65488098 69.8197171 2.93744751 69.09817444 3.22857666 68.35476685 C3.76016822 66.99973301 4.29586092 65.64629726 4.83660889 64.29489136 C8.43063769 55.12805715 11.44129579 44.2535095 7.66748047 34.66430664 C5.59489759 31.11130742 3.62858253 28.51985767 -0.08251953 26.66430664 C0.36800781 27.68137695 0.36800781 27.68137695 0.82763672 28.71899414 C4.99396769 38.91591266 4.14230621 45.22288917 -0.02001953 55.28930664 C-1.35120273 58.42446281 -2.71550074 61.54463843 -4.08251953 64.66430664 C-9.13431159 76.24557046 -14.10743984 87.74653 -17.58251953 99.91430664 C-17.81334229 100.72222656 -18.04416504 101.53014648 -18.28198242 102.36254883 C-21.17861286 113.06219018 -22.42395754 123.46212684 -22.33251953 134.53930664 C-22.32937744 135.67102295 -22.32623535 136.80273926 -22.32299805 137.96875 C-22.25125005 145.26766882 -21.76752745 152.23521205 -20.42236328 159.41821289 C-20.31021484 160.15942383 -20.19806641 160.90063477 -20.08251953 161.66430664 C-22.04281908 163.62460619 -25.74801576 163.10183096 -28.43798828 163.27758789 C-30.01199468 163.3897729 -31.58596796 163.50242341 -33.15991211 163.61547852 C-33.9932608 163.67405029 -34.8266095 163.73262207 -35.68521118 163.79296875 C-58.2645987 165.39887 -80.68807335 167.83339242 -102.93017578 172.14868164 C-105.72455992 172.60575563 -108.26015206 172.77101241 -111.08251953 172.66430664 C-111.31326172 171.76969727 -111.54400391 170.87508789 -111.78173828 169.95336914 C-114.87045249 158.50193069 -119.39696346 149.58345659 -126.02001953 139.78930664 C-136.05738678 124.87807652 -140.97356281 110.00126068 -145.89599609 92.82592773 C-152.51836669 69.15002137 -152.51836669 69.15002137 -169.45751953 52.10180664 C-171.64560836 50.9061482 -173.85280199 49.77916541 -176.08251953 48.66430664 C-173.77718306 52.26063153 -171.34163281 55.59947416 -168.64501953 58.91430664 C-159.03301537 71.33408175 -156.49040189 86.15549643 -153.20776367 101.18969727 C-148.92070708 120.72836361 -141.40555243 134.99445003 -129.08251953 150.66430664 C-117.66904052 165.20204494 -117.66904052 165.20204494 -115.08251953 172.66430664 C-115.41251953 173.32430664 -115.74251953 173.98430664 -116.08251953 174.66430664 C-118.43310547 175.42285156 -118.43310547 175.42285156 -121.56689453 176.14477539 C-122.71947754 176.41797607 -123.87206055 176.69117676 -125.05957031 176.97265625 C-126.30464355 177.26277588 -127.5497168 177.55289551 -128.83251953 177.85180664 C-146.44178563 182.11723174 -163.06493664 187.40503198 -179.49267578 195.06274414 C-182.14600758 196.24649391 -184.3024117 197.03818033 -187.08251953 197.66430664 C-187.35064453 197.15641602 -187.61876953 196.64852539 -187.89501953 196.12524414 C-193.84191205 185.67905794 -203.36640371 181.18268073 -214.66137695 177.91918945 C-222.34775672 175.88001078 -230.01433858 174.77142057 -237.89501953 173.78930664 C-265.2496402 170.09632518 -265.2496402 170.09632518 -275.08251953 160.66430664 C-275.60974609 160.21055664 -276.13697266 159.75680664 -276.68017578 159.28930664 C-282.11463626 153.95213829 -283.95350435 146.48344379 -286.43164062 139.47875977 C-288.95432383 132.44628354 -291.69846652 128.59295465 -298.08251953 124.66430664 C-296.61328566 119.6843771 -294.50054081 115.40515115 -291.95751953 110.91430664 C-291.55936035 110.20983398 -291.16120117 109.50536133 -290.75097656 108.77954102 C-287.37558958 102.93654665 -283.52285965 97.74817431 -279.08251953 92.66430664 C-278.53208984 91.98239258 -277.98166016 91.30047852 -277.41455078 90.59790039 C-272.63188132 84.79280753 -266.96611575 80.31011964 -261.08251953 75.66430664 C-260.35935547 75.05200195 -259.63619141 74.43969727 -258.89111328 73.80883789 C-199.12094549 23.66177404 -78.21059568 -21.60728611 0 0 Z " fill="#F1F1EF" transform="translate(333.08251953125,93.335693359375)"/>
<path d="M0 0 C1.5624646 -0.00151062 1.5624646 -0.00151062 3.15649414 -0.00305176 C18.30095891 0.00685115 33.1622994 0.24535286 48.0625 3.25 C48.78083008 3.38921875 49.49916016 3.5284375 50.23925781 3.671875 C63.40360254 6.3405737 76.89208885 11.48436894 84.875 22.8125 C88.04887806 27.97997021 87.50229176 33.38610983 87.0625 39.25 C83.42565327 37.93276753 80.58014862 36.29920594 77.4375 34.0625 C54.04015069 19.01687832 23.16156471 16.046725 -3.9375 15.25 C-4.72189453 15.22663574 -5.50628906 15.20327148 -6.31445312 15.17919922 C-61.52137463 13.80018502 -117.96536512 25.22184841 -170.1875 42.4375 C-171.41887695 42.84137939 -172.65025391 43.24525879 -173.91894531 43.66137695 C-180.90089753 46.0203662 -187.45718208 48.73410259 -193.9375 52.25 C-193.05868164 52.02973145 -192.17986328 51.80946289 -191.27441406 51.58251953 C-141.85475313 39.30022455 -91.70536034 29.67124805 -40.9375 25.25 C-39.37008057 25.10643066 -39.37008057 25.10643066 -37.77099609 24.95996094 C-26.87856805 24.05911985 -15.98656735 24.00665112 -5.0625 24 C-4.06371826 23.99932526 -3.06493652 23.99865051 -2.03588867 23.99795532 C12.86099105 24.01392693 27.39901253 24.36237759 42.0625 27.25 C42.95146973 27.42160645 43.84043945 27.59321289 44.75634766 27.77001953 C58.89906135 30.59856227 73.1787386 34.64655904 86.0625 41.25 C86.0625 41.91 86.0625 42.57 86.0625 43.25 C86.7225 43.58 87.3825 43.91 88.0625 44.25 C87.4025 44.25 86.7425 44.25 86.0625 44.25 C84.89983109 65.43641118 90.26240272 88.6568985 98.0625 108.25 C97.423125 107.98703125 96.78375 107.7240625 96.125 107.453125 C65.5097602 95.42570937 33.33910726 90.92977871 0.6875 89.0625 C-0.4289238 88.99790588 -0.4289238 88.99790588 -1.56790161 88.93200684 C-18.42898713 87.98200774 -35.20356971 88.04529569 -52.0625 89 C-53.21419678 89.06485092 -53.21419678 89.06485092 -54.38916016 89.13101196 C-100.49650736 91.79991802 -148.36349114 99.69143311 -191.19287109 117.54492188 C-192.75100433 118.17462923 -194.34317272 118.71855757 -195.9375 119.25 C-195.66035156 118.5796875 -195.38320312 117.909375 -195.09765625 117.21875 C-193.74755633 113.76394885 -192.54864548 110.2674538 -191.375 106.75 C-191.15392578 106.09902344 -190.93285156 105.44804687 -190.70507812 104.77734375 C-186.62358093 92.56984459 -185.34009856 76.42856298 -190.6484375 64.41796875 C-192.3858845 61.4958988 -194.37869477 59.0063152 -196.765625 56.58984375 C-197.9375 55.25 -197.9375 55.25 -197.9375 53.25 C-198.9275 53.25 -199.9175 53.25 -200.9375 53.25 C-202.37517411 48.64944284 -201.93023693 44.58420283 -199.9375 40.25 C-184.49425614 18.14685723 -135.09814029 15.13898195 -110.57696533 10.71606445 C-86.50968361 6.46637632 -62.30075371 3.20508699 -37.9375 1.25 C-36.82834229 1.1557373 -35.71918457 1.06147461 -34.57641602 0.96435547 C-23.05883414 0.07759447 -11.54673135 0.00776051 0 0 Z " fill="#EFEFED" transform="translate(338.9375,263.75)"/>
<path d="M0 0 C1.06457271 -0.00424107 1.06457271 -0.00424107 2.15065193 -0.00856781 C5.92115755 -0.02343645 9.69162627 -0.03273833 13.4621582 -0.03710938 C16.50134567 -0.04145153 19.54024244 -0.05519397 22.5793457 -0.078125 C59.87400112 -0.3534643 95.97833594 3.1330315 131.92431641 13.73168945 C133.4947791 14.24755192 133.4947791 14.24755192 134.62890625 14.203125 C135.14099351 18.385171 135.04754686 21.27495419 132.50390625 24.640625 C105.43664322 52.71037926 48.0132215 57.25883724 11.62890625 61.203125 C10.205177 61.35998779 10.205177 61.35998779 8.75268555 61.52001953 C-2.97511771 62.61457534 -14.79078447 62.44701519 -26.55859375 62.453125 C-28.30627548 62.45413712 -28.30627548 62.45413712 -30.08926392 62.45516968 C-46.71777636 62.43985178 -62.96164981 62.13952166 -79.37109375 59.203125 C-80.38945312 59.03151855 -81.4078125 58.85991211 -82.45703125 58.68310547 C-108.06680537 54.30392802 -140.26712675 48.43569786 -158.2421875 28.01171875 C-159.62776282 25.79192162 -159.91097514 23.76058925 -160.37109375 21.203125 C-149.19198609 18.27169346 -137.99081526 15.83200686 -126.62109375 13.765625 C-125.80573151 13.61660736 -124.99036926 13.46758972 -124.15029907 13.3140564 C-95.72614508 8.14406318 -67.20127412 4.67148786 -38.44140625 2 C-37.73120834 1.93356796 -37.02101044 1.86713593 -36.28929138 1.7986908 C-33.98403016 1.58914854 -31.67799892 1.39375102 -29.37109375 1.203125 C-28.33494431 1.11577087 -27.29879486 1.02841675 -26.23124695 0.93841553 C-17.48165839 0.25083809 -8.77396621 0.02427534 0 0 Z " fill="#DBDBD9" transform="translate(305.37109375,361.796875)"/>
<path d="M0 0 C2.01916986 1.43730985 3.81294595 2.93854027 5.609375 4.64453125 C6.43888672 5.43150391 6.43888672 5.43150391 7.28515625 6.234375 C13.23332736 12.50726017 15.81428877 19.54895322 16.046875 28.14453125 C15.8455931 34.051114 14.79361009 39.16495017 12.609375 44.64453125 C12.22652344 45.62099609 12.22652344 45.62099609 11.8359375 46.6171875 C7.47492433 56.35945087 0.0262046 64.63482819 -7.640625 71.90234375 C-9.47068211 73.53935439 -9.47068211 73.53935439 -10.390625 75.64453125 C-11.050625 75.64453125 -11.710625 75.64453125 -12.390625 75.64453125 C-12.390625 76.30453125 -12.390625 76.96453125 -12.390625 77.64453125 C-13.050625 77.64453125 -13.710625 77.64453125 -14.390625 77.64453125 C-14.62523437 78.19367188 -14.85984375 78.7428125 -15.1015625 79.30859375 C-16.72523481 82.25088478 -18.7883928 84.5026899 -21.015625 87.01953125 C-39.34033392 108.42220563 -44.63235964 135.20633759 -46.390625 162.64453125 C-51.00749157 160.81297723 -55.58321685 158.88966097 -60.16015625 156.9609375 C-62.62778022 155.95538819 -65.09696331 154.99378197 -67.5925293 154.06225586 C-68.30587936 153.79569687 -69.01922943 153.52913788 -69.75419617 153.25450134 C-70.29421768 153.05321121 -70.8342392 152.85192108 -71.390625 152.64453125 C-58.43906283 112.50359336 -58.43906283 112.50359336 -50.390625 95.64453125 C-49.91012695 94.63277832 -49.42962891 93.62102539 -48.93457031 92.57861328 C-40.64310508 75.25952468 -31.43170166 58.81265233 -20.89453125 42.76953125 C-20.50685577 42.17897949 -20.1191803 41.58842773 -19.71975708 40.97998047 C-17.79561384 38.05308938 -15.86249388 35.13278525 -13.91308594 32.22265625 C-13.21086914 31.165625 -12.50865234 30.10859375 -11.78515625 29.01953125 C-10.83926636 27.60800781 -10.83926636 27.60800781 -9.87426758 26.16796875 C-8.54863373 23.91327869 -7.83246708 22.19889566 -7.390625 19.64453125 C-27.09318421 34.3432659 -41.05239898 55.05278315 -52.390625 76.64453125 C-52.73480469 77.29873047 -53.07898438 77.95292969 -53.43359375 78.62695312 C-62.86708425 96.86142039 -68.77731219 116.48604925 -72.390625 136.64453125 C-72.720625 136.64453125 -73.050625 136.64453125 -73.390625 136.64453125 C-74.28082993 120.65263548 -74.57425855 104.64783834 -74.67773438 88.63348389 C-74.69443416 86.46207026 -74.71816088 84.29069732 -74.74951172 82.1194458 C-75.11670463 55.38604807 -71.62205289 27.97489787 -52.390625 7.64453125 C-51.730625 7.64453125 -51.070625 7.64453125 -50.390625 7.64453125 C-50.390625 6.98453125 -50.390625 6.32453125 -50.390625 5.64453125 C-35.8148067 -6.21475178 -16.66816812 -9.45074238 0 0 Z " fill="#DBDBD9" transform="translate(463.390625,109.35546875)"/>
<path d="M0 0 C2.41435568 0.95767762 3.74563228 1.60089105 5.16015625 3.8203125 C7.24916491 9.15587575 8.46667407 14.35289868 9.375 20 C10.91605057 29.23983295 14.37983054 36.78294093 21.8984375 42.62890625 C35.46289392 51.47857949 50.15895458 54.12933903 66.03515625 55.42578125 C99.32817035 58.16098739 99.32817035 58.16098739 111 71 C110 74 110 74 107.125 76.3125 C103.98505741 78.84715246 102.32348657 81.10739244 101 85 C101.16996757 88.52322185 101.16996757 88.52322185 102 92 C102.2784375 93.7015625 102.2784375 93.7015625 102.5625 95.4375 C102.7790625 96.7059375 102.7790625 96.7059375 103 98 C94.25713914 97.3264005 85.61044041 96.1651952 76.9375 94.890625 C76.23212097 94.7874572 75.52674194 94.6842894 74.79998779 94.5779953 C71.06226346 94.03107268 67.3251044 93.48046204 63.58837891 92.92675781 C60.54467751 92.47634279 57.50013672 92.03248652 54.45458984 91.59472656 C0.15252655 83.78300162 0.15252655 83.78300162 -10.62890625 69.9765625 C-16.58269394 61.39360931 -16.01440957 51.82796203 -14.37890625 41.796875 C-11.66681234 27.51479474 -6.82910363 12.84977754 0 0 Z " fill="#EFEFED" transform="translate(33,221)"/>
<path d="M0 0 C9.55694295 3.48021096 16.93527674 8.7069733 24 16 C24.64582031 16.64839844 25.29164063 17.29679687 25.95703125 17.96484375 C36.89718679 29.62004214 42.24314627 45.23221394 43 61 C42.37538533 74.01280572 39.55897309 84.316699 31.33789062 94.46362305 C27.21942462 99.57255945 23.60283391 104.95596545 20 110.4375 C15.92509246 116.63056618 11.80573571 122.75977864 7.4375 128.75 C3.88346967 133.63163629 0.71433311 138.5999057 -2 144 C-2.33 144 -2.66 144 -3 144 C-3.90520104 117.32823278 4.84510552 92.28443916 14.45483398 67.87695312 C14.73740051 67.15541046 15.01996704 66.4338678 15.31109619 65.69046021 C15.84268775 64.33542637 16.37838045 62.98199062 16.91912842 61.63058472 C20.51315722 52.46375051 23.52381532 41.58920286 19.75 32 C17.67741712 28.44700078 15.71110206 25.85555103 12 24 C12.30035156 24.67804688 12.60070312 25.35609375 12.91015625 26.0546875 C17.07648722 36.25160602 16.22482574 42.55858253 12.0625 52.625 C10.7313168 55.76015617 9.36701879 58.88033179 8 62 C-0.02960105 80.40790893 -7.58689187 98.90463398 -10 119 C-12.31522986 115.52715521 -12.52365329 112.79454238 -12.85375977 108.765625 C-12.92072052 108.03183121 -12.98768127 107.29803741 -13.05667114 106.54200745 C-13.27637747 104.11198861 -13.48391105 101.68108946 -13.69140625 99.25 C-13.84234403 97.55421369 -13.99404301 95.85849498 -14.14646912 94.1628418 C-14.54653623 89.68950626 -14.93632459 85.21533215 -15.32397461 80.74090576 C-15.71706678 76.22386634 -16.11961599 71.70767184 -16.52148438 67.19140625 C-17.17689402 59.81400981 -17.82593843 52.43608407 -18.4681673 45.0575285 C-18.89949965 40.11244752 -19.34843999 35.1692571 -19.81620789 30.22749329 C-20.11984348 26.54754076 -20.22248038 22.87856942 -20.25 19.1875 C-20.270625 18.47658203 -20.29125 17.76566406 -20.3125 17.03320312 C-20.34782473 12.25111802 -19.53108283 9.05213735 -17 5 C-11.46985418 0.0093806 -7.35136828 -1.1215549 0 0 Z " fill="#DADAD8" transform="translate(321,96)"/>
<path d="M0 0 C19.5776945 2.17529939 41.52178803 6.48348589 56 21 C56 21.66 56 22.32 56 23 C56.66 23 57.32 23 58 23 C69.59858604 38.33789853 75.13990049 56.06143081 72.546875 75.375 C72.27617187 77.169375 72.27617187 77.169375 72 79 C70.26547827 90.79729852 70.65183586 96.6881041 77 107 C79.9967055 112.17612768 81.69853413 115.8296152 81 122 C80 124.9375 80 124.9375 79 127 C77.35 127 75.7 127 74 127 C73.65388672 125.65808594 73.65388672 125.65808594 73.30078125 124.2890625 C70.21206704 112.83762405 65.68555607 103.91914995 59.0625 94.125 C49.02513275 79.21376988 44.10895672 64.33695404 39.18652344 47.16162109 C32.56415284 23.48571473 32.56415284 23.48571473 15.625 6.4375 C13.43691117 5.24184155 11.22971754 4.11485877 9 3 C11.30533647 6.59632489 13.74088672 9.93516752 16.4375 13.25 C26.04950417 25.66977511 28.59211764 40.49118979 31.87475586 55.52539062 C36.16181245 75.06405697 43.6769671 89.33014339 56 105 C67.41347901 119.5377383 67.41347901 119.5377383 70 127 C69.67 127.66 69.34 128.32 69 129 C59.25639415 128.77855441 48.92357 121.5773915 42 115 C42 114.34 42 113.68 42 113 C41.071875 112.62875 41.071875 112.62875 40.125 112.25 C37.64931313 110.79371361 37.04874998 109.62187494 36 107 C35.34 107 34.68 107 34 107 C19.0051434 89.87958383 16.66016315 67.81049653 14.35009766 46.20458984 C12.63728283 30.52648149 10.8102887 16.89352229 1 4 C1 3.34 1 2.68 1 2 C0.34 1.67 -0.32 1.34 -1 1 C-0.67 0.67 -0.34 0.34 0 0 Z " fill="#DADAD8" transform="translate(148,139)"/>
<path d="M0 0 C2.41435568 0.95767762 3.74563228 1.60089105 5.16015625 3.8203125 C7.24916491 9.15587575 8.46667407 14.35289868 9.375 20 C10.91605057 29.23983295 14.37983054 36.78294093 21.8984375 42.62890625 C35.46289392 51.47857949 50.15895458 54.12933903 66.03515625 55.42578125 C99.32817035 58.16098739 99.32817035 58.16098739 111 71 C110.505 72.485 110.505 72.485 110 74 C109.24976563 73.79503906 108.49953125 73.59007812 107.7265625 73.37890625 C106.70304687 73.10949219 105.67953125 72.84007812 104.625 72.5625 C103.62726563 72.29566406 102.62953125 72.02882813 101.6015625 71.75390625 C93.47649447 70.05310567 85.29139066 69.85237294 77.015625 69.7890625 C74.92447137 69.76099152 72.83332564 69.73232704 70.7421875 69.703125 C67.49967702 69.66201862 64.25731366 69.6250596 61.01464844 69.59863281 C43.53735932 69.44443708 28.0104943 69.0069962 13 59 C13 58.34 13 57.68 13 57 C12.34 57 11.68 57 11 57 C1.2684939 46.97537625 -1.57928897 29.20773912 -4 16 C-4.66 16 -5.32 16 -6 16 C-4.43551329 10.3856009 -2.83604813 5.13189662 0 0 Z " fill="#D9D9D7" transform="translate(33,221)"/>
</svg>
